<?xml version="1.0" encoding="utf-8"?>
<!-- Generator: Adobe Illustrator 18.1.0, SVG Export Plug-In . SVG Version: 6.00 Build 0)  -->
<svg version="1.1" id="Layer_1" xmlns="http://www.w3.org/2000/svg" xmlns:xlink="http://www.w3.org/1999/xlink" x="0px" y="0px"
	 viewBox="0 0 150 150" enable-background="new 0 0 150 150" xml:space="preserve">
<g>
	<path fill="none" d="M43,96.9c0,3.6,0,10.9,0,15.7c4-2.4,5.7-4.8,5.7-4.8l1.3,4.9l6.1-5.3c0,0,1.8,2.8,3.6,5
		c1.5-0.1,3.1-0.1,4.6-0.2c1.3-1.9,2.8-4.2,3.6-3.7c0.5,0.4,2.3,2.1,4.1,3.6c2.3,0,4.7,0,7.1,0.1c1.8-1.5,4-2.9,4-2.9
		s0.3,1.6,0.7,3.1c1,0,2.3,0.1,3.3,0.2c0-4.8,0-11.9,0-15.5C79,100.1,63,104.9,43,96.9z"/>
	<path fill="#D6AF9B" enable-background="new    " d="M33.5,110.4c0,0,1.4,2.4,3,4c0.7-0.1,1.5-0.2,2.5-0.3c0-4.8,0-21.4,0-21.4
		c0-0.9,0.1-1.8,0.9-2.3c0.8-0.5,1.6-0.5,2.4-0.1c24.5,12.2,44.7,0.6,45.6,0.1c0.8-0.5,1.9-0.5,2.7,0c0.8,0.5,1.4,1.4,1.4,2.3
		c0,0,0,12.8,0,19.3c0,0.3,0.1,0.6,0.2,0.9c1.6,0.1,3.2,0.3,4.9,0.5c1.9-1.4,3.7-2.2,3.7-2.2s0.1,0.9,1.1,1.8c0-7.2,0-27.3,0-27.3
		c0-1.4,1.1-2.6,2.6-2.7c1.4-0.1,2.7,1,2.8,2.5c0.4,6.1,2.3,10.7,5.6,13.5c3.9,3.4,8.8,3.5,11.4,3.3c2.8-0.2,5.1-1.4,6.9-3.5
		c2.1-2.5,3.3-6.2,3.3-10.5c0-0.9,0-1.7-0.1-2.7c-0.5-4.6-2.4-6.6-3.3-7.1c0,0.1,0,0.3,0,0.6c0,0.5,0.1,1.1,0.3,2
		c0.5,1.8,0.6,3.3,0.6,4.7c0,5.4-2.9,8.2-3.9,9c-2.2,1.7-4.9,2-6.9,0.9c-4.1-2.3-5.7-6.7-3.2-39.2c0.8-9.9-0.9-16.8-5-20.5
		c-5.9-5.3-16.1-3.3-21.6-2.3c-12.8,2.4-28.3,7.4-29.4,17.3c-0.8,7.2,0.2,12.2,3.1,15.3c3,3.2,8.1,4.8,15.7,4.6
		c3.9-0.1,7-1.3,9.1-3.6c4.1-4.4,3.7-11.7,3.7-11.7c-0.1-1.5,1-2.7,2.5-2.8c1.5-0.1,2.7,1,2.8,2.5c0,0.4,0.6,9.5-5.1,15.7
		c-3.2,3.4-7.5,5.2-13,5.3c-9.2,0.2-15.7-1.9-19.7-6.4c-3.2-3.5-4.7-8.2-4.7-14.5c0-1.6,0.1-3.3,0.3-5.1c0.2-2,0.9-3.9,1.9-5.7
		c-11.1-0.9-19.7,1-25.2,5.6c-6,5-6.5,11.5-6.5,11.7c0,0,0,35.5,0,48.3l4.6,3.4C32.7,112.2,33.5,110.4,33.5,110.4z M109.9,60.4
		c1.4,0,2.5,1.1,2.5,2.5c0,1.4-1.1,2.5-2.5,2.5c-1.4,0-2.5-1.1-2.5-2.5C107.3,61.6,108.5,60.4,109.9,60.4z"/>
	<path fill="#7C5F47" d="M139.8,85.2c-0.6-5.6-3.3-10.2-6.8-11.6c-1.9-0.8-3.9-0.5-5.3,0.8c-1.1,0.9-2.7,3.3-1.4,8.2
		c1.2,4.8-0.3,7-1,7.8c-0.7,0.7-1.3,0.8-1.5,0.8c-2.5-1.4-1.4-20.1-0.3-34c0.9-11.7-1.4-20-6.8-24.9c-7.8-7-20.2-4.7-26.1-3.6
		c-13.1,2.5-22.5,6.3-28,11.3c0,0-0.1,0-0.1,0c-14.3-1.7-25.2,0.5-32.4,6.6c-4.1,3.5-6.2,7.6-7.2,10.7c-3.1,3.1-6.5,8.2-8.6,16.7
		c-0.4,1.4,0.5,2.9,2,3.2c1.4,0.4,2.9-0.5,3.3-2c0.7-2.8,1.4-5.1,2.4-7.1v46.7c1-2.2,1.3-4.8,1.3-4.8s0.9,3,2.5,5l0.1-5.6l1.2,1
		c0-12.8,0-48.3,0-48.3c0-0.2,0.5-6.7,6.5-11.7c5.5-4.6,14-6.5,25.1-5.6c-1,1.8-1.6,3.7-1.9,5.7c-0.2,1.8-0.3,3.5-0.3,5.1
		c0,6.2,1.6,11,4.7,14.5c4,4.5,10.5,6.5,19.7,6.4c5.5-0.1,9.9-1.9,13-5.3C99.6,65,99,55.9,99,55.5c-0.1-1.5-1.4-2.6-2.8-2.5
		c-1.5,0.1-2.6,1.4-2.5,2.8c0,0.1,0.4,7.3-3.7,11.7c-2.1,2.3-5.2,3.5-9.1,3.6c-7.6,0.1-12.7-1.4-15.7-4.6c-2.9-3.2-3.9-8.2-3.1-15.3
		c1.1-9.9,16.6-14.9,29.4-17.3c5.5-1,15.7-3,21.6,2.3c4.1,3.7,5.8,10.6,5,20.5c-2.5,32.5-1,36.9,3.2,39.2c2,1.1,4.7,0.8,6.9-0.9
		c1.1-0.8,3.9-3.5,3.9-9c0-1.4-0.2-3-0.6-4.7c-0.2-0.9-0.3-1.5-0.3-2c0-0.2,0-0.4,0-0.6c0.9,0.5,2.9,2.5,3.3,7.1
		c0.1,0.9,0.1,1.8,0.1,2.7c0,4.3-1.1,8-3.3,10.5c-1.8,2.1-4.2,3.3-6.9,3.5c-2.6,0.2-7.5,0-11.4-3.3c-3.3-2.8-5.2-7.4-5.6-13.5
		c-0.1-1.4-1.3-2.5-2.8-2.5c-1.4,0.1-2.6,1.2-2.6,2.7c0,0,0,20.1,0,27.3c0,0.3,0.8,0.7,1.1,1c1.5,0.2,2.9,0.4,4.9,0.6
		c0-3.2,0-8.5,0-13.9c0,0.8,1,1.6,1.8,2.3c5.4,4.6,11.7,4.9,15.2,4.6c4.2-0.3,7.8-2.2,10.5-5.4C139,98.1,140.5,92,139.8,85.2z"/>
	<path fill="#7C5F47" d="M24.6,120h5.3c-2,0-4-0.1-6-0.1C24.1,120,24.3,120,24.6,120z"/>
	<path fill="#7C5F47" d="M90.6,90.4c-0.8-0.5-1.9-0.5-2.7,0C87,91,66.7,102.6,42.2,90.4c-0.8-0.4-1.5-0.4-2.3,0.1
		C39.1,91,39,91.8,39,92.8c0,0,0,16.6,0,21.4c1-0.2,2-0.3,3.3-0.5c0.4-0.4,0.7-0.8,0.7-1.1c0-4.8,0-12,0-15.7c20,8,36,3.2,44,0.1
		c0,3.6,0,10.7,0,15.5c1,0,1.3,0.1,2,0.1c1.4-1.2,2.6-2.2,2.6-2.2s-0.6,0.7,0.4,1.6c0-6.5,0-19.3,0-19.3
		C92,91.8,91.4,90.9,90.6,90.4z"/>
	<circle fill="#7C5F47" cx="109.9" cy="63" r="2.5"/>
	<path fill="#878A3A" d="M102.7,114c-0.3-0.3-0.5-0.7-0.7-1c-0.7-1-1.1-1.8-1.1-1.8s-1.9,0.8-3.8,2.2c-1.7-0.2-3.3-0.3-4.9-0.5
		c-0.1-0.3-0.2-0.6-0.3-0.9c-0.3-0.9-0.5-1.6-0.5-1.6s-1.2,1.1-2.6,2.2c-0.8-0.1-1.5-0.1-2.3-0.1c-1-0.1-2-0.1-3-0.2
		c-0.3-1.5-0.4-3.1-0.4-3.1s-2.1,1.4-4,2.9c-2.4-0.1-4.8-0.1-7.1-0.1c-1.8-1.5-3.5-3.2-4.1-3.6c-0.7-0.5-2.3,1.7-3.6,3.7
		c-1.6,0-3.1,0.1-4.6,0.2c-1.7-2.1-3.5-5-3.5-5l-6.1,5.3l-1.1-4.9c0,0-2.6,2.4-5.4,4.8c-0.4,0.4-0.9,0.8-1.3,1.1
		c-1.4,0.2-2.7,0.3-4,0.5c-0.7,0.1-1.4,0.2-2.2,0.3c-1.6-1.6-2.6-4-2.6-4s-0.6,1.8-1.7,3.4l-4.5-3.4l-1.3-1l-0.2,5.6
		c-1.5-1.9-2.5-5-2.5-5s-0.7,2.5-1.3,4.8c-0.2,0.7-0.4,1.5-0.6,2c-1.1,0.2-2.1,0.4-3.1,0.6c-1.9-0.8-4.1-2.1-4.1-2.1l0.7,2.9
		c-4.4,1-6.8,1.7-6.8,1.7c5.3-0.1,10.6-0.1,15.8-0.1c2,0,4,0.1,6,0.1c14.2,0.3,28.1,1.2,42.2,3c21.2,2.7,51.5-5.3,51.5-5.3
		c-1.6-0.4-3.1-0.7-4.7-1l1.4-3.3l0,0c0.4-0.2,0.7-0.3,0.7-0.3s-5.8,1.8-8,2.4c-0.9-0.2-1.9-0.3-2.8-0.5c-0.9-0.6-1.7-1.2-1.7-1.2
		s-0.2,0.4-0.6,0.9c-0.2,0-0.3-0.1-0.5-0.1C105.8,114.4,104.3,114.2,102.7,114z"/>
</g>
</svg>
